<?xml version="1.0" standalone="no"?><svg xmlns="http://www.w3.org/2000/svg" viewBox="0 0 1440 320"><path fill="#ffc107" fill-opacity="0.95" d="M0,160L15,165.3C30,171,60,181,90,165.3C120,149,150,107,180,80C210,53,240,43,270,64C300,85,330,139,360,154.7C390,171,420,149,450,154.7C480,160,510,192,540,213.3C570,235,600,245,630,213.3C660,181,690,107,720,106.7C750,107,780,181,810,224C840,267,870,277,900,250.7C930,224,960,160,990,160C1020,160,1050,224,1080,224C1110,224,1140,160,1170,144C1200,128,1230,160,1260,165.3C1290,171,1320,149,1350,154.7C1380,160,1410,192,1425,208L1440,224L1440,0L1425,0C1410,0,1380,0,1350,0C1320,0,1290,0,1260,0C1230,0,1200,0,1170,0C1140,0,1110,0,1080,0C1050,0,1020,0,990,0C960,0,930,0,900,0C870,0,840,0,810,0C780,0,750,0,720,0C690,0,660,0,630,0C600,0,570,0,540,0C510,0,480,0,450,0C420,0,390,0,360,0C330,0,300,0,270,0C240,0,210,0,180,0C150,0,120,0,90,0C60,0,30,0,15,0L0,0Z"></path></svg>